# xmcd
#
# Track frame offsets:
#	150
#	12775
#	23287
#	35385
#	47855
#	64785
#	74704
#	89440
#	100447
#	114572
#	128405
#	137603
#
# Disc length: 2007 seconds
# Revision: 0
# Processed by: cddbd v1.5.2PL0 Copyright (c) Steve Scherf et al.
# Submitted via: dBpowerAMP V12.0
#
DISCID=9b07d50c
DTITLE=Jimmy Driftwood - Down in The Arkansas
DYEAR=1965
DGENRE=Country
TTITLE0=Down in The Arkansas
TTITLE1=The Timbercutter's Song
TTITLE2=The Courtin' Song
TTITLE3=Ozark Bill
TTITLE4=On The Banks of The Buffalo
TTITLE5=Beautiful White River Valley
TTITLE6=In The Ouachita Mountains
TTITLE7=The Horsetrader's Song
TTITLE8=Bows And Arrows: Arrows And Bows
TTITLE9=The Ballad of Jim Berry
TTITLE10=That's The Way They do in Arkansas
TTITLE11=In a Mountain Village
EXTD=
EXTT0=
EXTT1=
EXTT2=
EXTT3=
EXTT4=
EXTT5=
EXTT6=
EXTT7=
EXTT8=
EXTT9=
EXTT10=
EXTT11=
PLAYORDER=
